<?xml version="1.0" standalone="no"?>
<!DOCTYPE svg PUBLIC "-//W3C//DTD SVG 20010904//EN"
 "http://www.w3.org/TR/2001/REC-SVG-20010904/DTD/svg10.dtd">
<svg version="1.0" xmlns="http://www.w3.org/2000/svg"
 width="260.000000pt" height="260.000000pt" viewBox="0 0 260.000000 260.000000"
 preserveAspectRatio="xMidYMid meet">
<metadata>
Created by potrace 1.11, written by Peter Selinger 2001-2013
</metadata>
<g transform="translate(0.000000,260.000000) scale(0.100000,-0.100000)"
fill="#000000" stroke="none">
<path d="M760 2349 c-35 -10 -83 -21 -105 -24 -22 -3 -47 -8 -55 -10 -8 -2
-55 -6 -105 -10 -122 -9 -163 -22 -210 -70 -47 -48 -170 -271 -204 -370 -20
-59 -24 -89 -24 -190 1 -68 7 -150 16 -190 58 -272 248 -523 497 -658 140 -77
345 -130 390 -102 16 10 -4 32 -52 56 -49 25 -159 129 -196 185 l-30 44 20 38
c24 46 20 98 -16 199 -48 134 -41 210 36 397 47 115 76 213 71 238 -7 29 -35
30 -90 3 -66 -33 -97 -73 -133 -172 -41 -117 -68 -169 -94 -183 -30 -15 -44
-7 -62 37 -21 50 -29 108 -27 193 4 122 63 319 103 340 9 5 62 23 116 41 198
63 282 127 259 198 -8 28 -32 30 -105 10z"/>
<path d="M1751 2353 c-12 -8 -21 -25 -21 -38 0 -55 90 -118 235 -165 144 -45
155 -51 174 -89 69 -137 94 -338 58 -462 -20 -69 -35 -84 -69 -69 -29 13 -57
65 -98 182 -36 99 -75 148 -144 179 -99 43 -103 -5 -19 -216 91 -228 96 -277
43 -440 -34 -109 -36 -134 -14 -181 10 -21 14 -44 10 -60 -9 -35 -160 -186
-213 -213 -23 -11 -47 -30 -53 -41 -10 -20 -4 -23 40 -22 73 1 232 48 330 97
253 127 455 388 516 668 23 101 22 285 0 362 -33 113 -178 370 -230 410 -42
31 -86 43 -181 50 -131 10 -191 20 -278 45 -58 16 -68 16 -86 3z"/>
<path d="M1034 1832 c-72 -7 -102 -97 -49 -146 14 -13 35 -22 47 -21 13 1 31
3 41 4 9 0 26 16 37 33 18 30 19 41 7 93 -8 32 -30 42 -83 37z"/>
<path d="M1546 1829 c-51 -8 -76 -38 -71 -86 4 -42 28 -69 71 -78 25 -5 38 -1
63 21 28 23 32 33 30 68 -4 74 -21 88 -93 75z"/>
<path d="M1164 1549 c-113 -15 -157 -44 -157 -103 0 -49 23 -79 104 -132 102
-66 145 -115 167 -186 10 -32 23 -59 28 -60 5 0 15 21 23 48 21 77 58 122 156
189 96 65 129 108 118 154 -11 47 -41 68 -124 87 -38 9 -259 11 -315 3z"/>
<path d="M1179 635 c-78 -42 -85 -140 -16 -217 35 -38 122 -98 143 -98 24 0
132 81 158 118 43 63 40 131 -9 178 -33 31 -39 33 -88 28 -63 -6 -71 -6 -122
0 -25 4 -50 0 -66 -9z m31 -40 c0 -8 -4 -15 -9 -15 -13 0 -22 16 -14 24 11 11
23 6 23 -9z m-30 -64 c0 -47 29 -86 95 -128 46 -28 56 -43 31 -43 -28 0 -107
62 -138 109 -18 26 -24 82 -11 94 15 16 23 5 23 -32z"/>
</g>
</svg>
