<?xml version="1.0" standalone="no"?>
<!DOCTYPE svg PUBLIC "-//W3C//DTD SVG 20010904//EN"
 "http://www.w3.org/TR/2001/REC-SVG-20010904/DTD/svg10.dtd">
<svg version="1.0" xmlns="http://www.w3.org/2000/svg"
 width="600.000000pt" height="600.000000pt" viewBox="0 0 600.000000 600.000000"
 preserveAspectRatio="xMidYMid meet">
<metadata>
Created by potrace 1.11, written by Peter Selinger 2001-2013
</metadata>
<g transform="translate(0.000000,600.000000) scale(0.100000,-0.100000)"
fill="#000000" stroke="none">
<path d="M2145 5149 c-107 -29 -252 -57 -335 -63 -242 -19 -277 -24 -340 -57
-58 -29 -102 -79 -156 -174 -6 -11 -35 -60 -64 -110 -101 -173 -171 -329 -184
-410 -32 -194 -23 -400 25 -582 102 -387 391 -750 750 -941 155 -82 365 -149
499 -158 101 -7 118 5 68 49 -20 17 -62 48 -94 67 -98 60 -304 279 -304 324 0
5 12 33 26 62 38 77 34 126 -22 290 -44 129 -47 146 -47 239 -1 134 26 226
138 480 23 51 64 182 70 224 8 52 -20 85 -63 75 -94 -22 -196 -103 -235 -187
-14 -29 -39 -95 -57 -147 -97 -288 -189 -328 -249 -110 -18 64 -20 96 -17 210
7 222 86 488 160 535 11 7 96 38 188 68 179 59 249 90 315 140 69 53 94 136
53 177 -24 24 -36 24 -125 -1z"/>
<path d="M3644 5160 c-29 -11 -39 -68 -21 -112 32 -76 141 -139 372 -214 210
-68 209 -67 243 -138 42 -85 74 -185 88 -271 3 -22 8 -43 10 -46 3 -6 13 -91
18 -168 6 -88 -36 -267 -73 -310 -35 -41 -82 -21 -125 54 -15 25 -49 106 -76
182 -68 186 -112 248 -213 297 -100 49 -149 38 -140 -31 7 -64 42 -171 103
-318 84 -203 102 -265 105 -375 4 -102 -6 -149 -63 -311 -37 -103 -38 -179 -4
-248 12 -25 22 -50 22 -56 0 -24 -100 -153 -170 -219 -40 -37 -111 -93 -159
-124 -95 -61 -105 -70 -89 -89 23 -28 189 -5 343 45 300 100 528 261 729 517
207 264 311 562 309 890 -2 239 -33 336 -200 627 -32 55 -70 120 -84 145 -60
104 -149 165 -259 178 -30 3 -71 8 -90 10 -19 2 -71 7 -115 10 -108 8 -223 29
-328 60 -95 27 -102 28 -133 15z"/>
<path d="M2497 4340 c-64 -32 -87 -100 -57 -168 29 -64 107 -91 175 -60 32 14
66 68 67 105 1 42 -20 109 -39 124 -22 19 -109 18 -146 -1z"/>
<path d="M3304 4348 c-40 -10 -74 -47 -84 -93 -18 -79 40 -155 117 -155 69 0
107 26 128 87 16 46 -3 140 -32 157 -22 13 -87 15 -129 4z"/>
<path d="M2908 3935 c-2 -1 -47 -5 -102 -9 -204 -13 -293 -57 -303 -148 -5
-38 -1 -55 20 -90 30 -51 39 -59 159 -138 107 -72 149 -109 187 -165 29 -43
61 -120 61 -147 0 -9 5 -29 10 -43 14 -38 34 -19 49 47 29 131 84 200 245 306
54 36 114 81 132 100 78 80 67 185 -24 231 -48 25 -165 47 -262 50 -41 2 -96
4 -122 6 -26 2 -48 2 -50 0z"/>
<path d="M2815 2540 c-68 -14 -117 -60 -136 -125 -25 -84 0 -159 77 -239 47
-48 155 -123 191 -132 44 -12 204 105 264 193 68 98 36 237 -65 290 -36 19
-114 18 -159 -1 -25 -10 -39 -11 -53 -3 -28 16 -85 24 -119 17z m-6 -64 c8
-10 8 -16 -2 -24 -17 -15 -39 0 -31 21 8 21 18 22 33 3z m-42 -82 c-3 -20 -3
-49 0 -65 8 -41 73 -111 149 -160 67 -44 71 -48 53 -66 -25 -25 -193 108 -229
182 -31 63 -21 145 17 145 12 0 14 -7 10 -36z"/>
<path d="M3909 2010 c-1 -70 0 -659 0 -682 1 -16 12 -18 81 -18 l81 0 6 30 c6
31 6 31 27 12 34 -31 62 -42 115 -46 161 -11 260 85 269 260 6 106 -15 172
-73 229 -85 86 -229 99 -307 28 -20 -18 -21 -17 -19 150 1 77 -1 87 -16 88
-10 1 -51 2 -91 2 l-72 2 -1 -55z m341 -325 c88 -45 74 -178 -21 -206 -37 -11
-46 -11 -78 7 -76 40 -77 158 -1 196 43 22 63 22 100 3z"/>
<path d="M4603 2062 l-33 -3 0 -70 c0 -65 1 -69 23 -70 31 -1 139 -1 155 0 8
1 12 22 12 71 0 49 -4 70 -12 71 -67 3 -118 3 -145 1z"/>
<path d="M4877 2055 c-2 -5 -3 -174 -3 -375 l1 -365 93 -3 c82 -2 92 -1 93 15
4 86 1 724 -4 729 -10 11 -177 10 -180 -1z"/>
<path d="M1155 1861 c-68 -21 -146 -98 -168 -166 -46 -137 -4 -289 97 -353
109 -68 275 -61 361 15 38 33 75 96 65 108 -5 7 -41 24 -80 39 l-70 28 -24
-29 c-21 -24 -32 -28 -75 -28 -69 0 -104 34 -107 102 -3 77 44 124 119 117 32
-3 77 -29 77 -44 0 -16 19 -12 92 18 77 31 82 43 44 98 -28 42 -77 79 -122 94
-52 18 -154 18 -209 1z"/>
<path d="M1755 1870 c-135 -30 -217 -140 -218 -291 -1 -67 3 -85 29 -135 33
-66 93 -117 157 -135 59 -17 174 -15 218 4 73 30 159 133 133 156 -5 4 -39 21
-76 36 l-68 28 -24 -26 c-32 -35 -84 -44 -129 -22 -79 37 -79 159 1 198 44 22
110 7 139 -32 10 -14 19 -12 84 14 41 17 75 37 77 45 4 22 -45 92 -81 116 -64
42 -166 60 -242 44z"/>
<path d="M2635 1864 c-22 -7 -52 -27 -67 -44 -27 -29 -28 -29 -29 -8 -1 13 -1
29 0 36 1 9 -22 12 -89 12 -65 0 -90 -3 -91 -12 -1 -17 -1 -498 0 -520 1 -16
12 -18 91 -18 65 0 90 4 91 13 1 6 3 82 4 167 1 85 3 165 4 177 2 42 77 63
111 31 23 -22 22 -10 25 -208 1 -85 3 -161 4 -167 1 -9 26 -13 91 -13 79 0 90
2 91 18 0 9 0 90 -1 180 -1 159 0 162 24 187 29 29 71 26 99 -6 15 -19 17 -44
17 -200 l0 -179 89 0 c77 0 90 3 95 18 2 9 4 114 2 232 -1 153 -6 223 -15 241
-29 59 -155 93 -231 62 -42 -17 -80 -51 -80 -72 0 -11 -6 -7 -16 10 -40 63
-137 91 -219 63z"/>
<path d="M3475 1870 c-155 -35 -248 -191 -212 -358 43 -202 304 -288 469 -155
178 144 112 468 -103 508 -55 10 -120 12 -154 5z m148 -210 c45 -50 32 -150
-25 -177 -43 -21 -55 -21 -95 -3 -66 29 -85 122 -38 179 43 50 112 51 158 1z"/>
<path d="M487 1856 c-43 -16 -61 -28 -101 -70 -50 -53 -70 -111 -70 -201 1
-165 88 -269 236 -280 59 -4 122 16 148 47 l19 23 1 -33 0 -33 87 3 88 3 0
270 0 270 -92 3 -93 3 0 -32 0 -33 -27 26 c-51 49 -121 60 -196 34z m164 -172
c89 -46 64 -195 -35 -211 -72 -12 -137 66 -115 139 21 74 86 106 150 72z"/>
<path d="M5319 1856 c-148 -53 -215 -236 -148 -403 54 -134 222 -193 382 -133
75 28 86 42 63 85 -10 19 -30 48 -45 66 l-27 31 -38 -26 c-63 -42 -148 -29
-174 28 -15 34 -10 35 176 34 84 0 156 3 160 7 4 4 6 40 6 80 -3 118 -56 201
-153 233 -45 16 -157 14 -202 -2z m158 -158 c12 -13 23 -32 25 -43 3 -18 -3
-19 -84 -20 -98 -1 -107 8 -67 59 28 35 95 37 126 4z"/>
<path d="M4573 1587 l2 -272 93 -3 92 -3 -2 273 -3 273 -92 2 -92 2 2 -272z"/>
<path d="M1347 1164 c-8 -8 1 -24 14 -24 5 0 9 7 9 15 0 15 -12 20 -23 9z"/>
<path d="M2039 1158 c-4 -51 -1 -210 4 -214 16 -17 23 15 22 112 0 76 -4 109
-13 112 -6 2 -12 -2 -13 -10z"/>
<path d="M3365 1149 c-16 -17 -17 -25 -8 -50 10 -26 9 -32 -13 -54 -30 -31
-30 -50 1 -80 27 -28 62 -32 91 -11 16 13 21 13 36 0 22 -21 36 2 15 23 -14
14 -14 18 -1 38 13 20 13 23 0 28 -9 4 -19 -1 -24 -9 -7 -13 -11 -12 -26 5
-18 19 -17 21 3 47 26 33 26 46 3 67 -25 23 -55 21 -77 -4z m60 -34 c0 -30
-39 -27 -43 3 -3 20 0 23 20 20 15 -2 23 -10 23 -23z m-10 -92 c26 -31 18 -53
-19 -53 -43 0 -63 49 -28 69 23 14 20 15 47 -16z"/>
<path d="M5007 1163 c-4 -3 -7 -55 -7 -115 0 -83 3 -109 13 -106 8 3 13 38 14
116 2 103 -2 124 -20 105z"/>
<path d="M4457 1153 c-4 -3 -7 -14 -7 -24 0 -9 -5 -19 -12 -21 -8 -3 -9 -11
-3 -24 9 -19 12 -41 14 -102 1 -35 19 -49 49 -37 16 6 16 7 -2 21 -29 20 -29
93 -2 116 20 17 20 19 -6 22 -7 0 -13 11 -13 23 0 24 -8 36 -18 26z"/>
<path d="M895 1098 c-11 -6 -23 -16 -27 -22 -11 -17 14 -25 30 -10 19 19 66
14 70 -7 2 -12 -8 -18 -39 -22 -53 -7 -74 -27 -65 -61 8 -31 46 -44 83 -27 20
9 28 9 33 0 19 -30 30 29 21 116 -4 36 -66 56 -106 33z m65 -113 c-7 -8 -26
-15 -42 -15 -44 0 -34 33 12 40 38 6 48 -3 30 -25z"/>
<path d="M1108 1053 c-4 -77 1 -115 15 -110 7 2 12 27 13 61 1 65 12 81 48 72
25 -6 26 -10 26 -71 0 -47 4 -65 13 -65 16 0 20 114 6 142 -12 23 -44 31 -68
19 -13 -7 -22 -8 -26 -1 -14 23 -23 7 -27 -47z"/>
<path d="M1348 1103 c-2 -5 -4 -41 -4 -82 1 -50 5 -76 14 -78 11 -4 14 10 14
82 0 65 -3 85 -11 85 -6 0 -11 -3 -13 -7z"/>
<path d="M1485 1102 c-16 -11 -14 -162 2 -162 12 0 18 37 14 82 -3 30 19 59
42 56 19 -3 23 -11 27 -67 7 -87 28 -94 32 -10 3 65 19 88 52 76 13 -5 16 -21
16 -73 0 -48 3 -65 12 -62 20 7 21 117 3 145 -18 27 -30 28 -67 9 -23 -12 -29
-12 -39 0 -14 17 -41 18 -57 2 -10 -10 -15 -10 -20 -1 -4 7 -12 9 -17 5z"/>
<path d="M1830 1099 c-13 -6 -28 -15 -32 -22 -11 -18 13 -27 29 -11 19 19 62
18 70 -1 7 -21 3 -24 -41 -30 -47 -6 -66 -20 -66 -51 0 -34 39 -51 85 -37 23
7 35 8 35 1 0 -5 6 -8 13 -5 13 4 12 135 -3 150 -12 13 -63 17 -90 6z m60
-114 c-7 -8 -26 -15 -42 -15 -44 0 -34 33 12 40 38 6 48 -3 30 -25z"/>
<path d="M2353 1100 c-69 -28 -48 -160 26 -160 32 0 71 25 71 46 0 19 -26 18
-34 -1 -7 -18 -47 -20 -64 -3 -7 7 -12 26 -12 43 0 17 5 36 12 43 18 18 56 15
67 -5 7 -14 13 -15 21 -6 9 8 7 16 -9 32 -22 22 -43 25 -78 11z"/>
<path d="M2568 1099 c-31 -12 -43 -35 -22 -43 8 -3 17 0 20 8 8 20 68 15 72
-6 3 -17 -4 -19 -43 -18 -3 0 -19 -7 -35 -15 -66 -34 -19 -100 55 -78 20 6 35
7 35 2 0 -5 6 -9 13 -9 9 0 12 19 10 72 -2 57 -6 74 -20 82 -25 14 -54 16 -85
5z m62 -114 c-17 -20 -70 -20 -70 0 0 8 12 17 28 21 15 3 32 7 37 8 15 4 18
-13 5 -29z"/>
<path d="M2785 1097 c-6 -15 -9 -83 -6 -140 1 -10 6 -17 13 -15 7 3 13 28 14
60 2 65 8 78 35 78 10 0 19 5 19 10 0 17 -29 23 -44 11 -11 -9 -15 -9 -19 1
-3 9 -7 8 -12 -5z"/>
<path d="M2980 1103 c-26 -10 -50 -47 -50 -81 0 -69 84 -108 132 -60 15 15 18
23 9 26 -7 2 -18 -1 -24 -7 -18 -18 -65 -13 -77 8 -15 29 -15 29 44 29 64 0
76 5 69 32 -11 41 -63 68 -103 53z m66 -38 c21 -16 19 -16 -43 -19 -45 -2 -51
2 -31 22 16 16 50 15 74 -3z"/>
<path d="M3771 1091 c-35 -27 -36 -104 -2 -132 33 -27 67 -24 99 8 25 25 25
28 8 31 -10 2 -23 -3 -28 -12 -11 -20 -51 -21 -67 -2 -7 8 -11 30 -8 48 5 44
46 61 77 33 23 -21 34 -16 24 9 -7 17 -43 36 -67 36 -7 0 -23 -9 -36 -19z"/>
<path d="M4002 1100 c-46 -19 -52 -115 -9 -145 56 -39 117 -2 117 71 0 34 -5
47 -26 63 -29 23 -46 25 -82 11z m68 -35 c17 -20 15 -76 -2 -86 -38 -24 -78 1
-78 50 0 42 54 67 80 36z"/>
<path d="M4210 1025 c0 -65 3 -85 14 -85 10 0 13 14 12 51 -1 56 15 89 44 89
27 0 32 -14 31 -81 0 -46 3 -59 14 -59 12 0 15 15 15 69 0 91 -26 120 -80 91
-13 -7 -21 -7 -25 0 -17 27 -25 2 -25 -75z"/>
<path d="M4605 1100 c-15 -24 -13 -160 2 -160 7 0 13 8 14 18 1 17 4 60 7 95
1 10 14 22 29 28 20 7 24 12 14 22 -9 9 -16 9 -31 0 -14 -9 -20 -9 -22 -1 -3
8 -7 7 -13 -2z"/>
<path d="M4780 1092 c-13 -11 -22 -33 -25 -61 -3 -35 0 -47 20 -67 30 -30 74
-31 103 -4 21 20 27 41 22 85 -5 51 -80 80 -120 47z m80 -32 c31 -31 9 -90
-34 -90 -29 0 -46 18 -46 48 0 58 42 80 80 42z"/>
</g>
</svg>
